<svg width="1444" height="788" viewBox="0 0 1444 788" fill="none" xmlns="http://www.w3.org/2000/svg">
<path d="M1052.57 0.413826C1079.63 -0.850861 1106.75 0.785106 1133.46 5.29542C1229.73 21.4645 1315.59 75.3482 1372.01 155.014C1496.4 331.04 1456.01 596.256 1277.83 721.309C1199.59 776.556 1102.54 798.268 1008.24 781.628C921.082 765.55 841.891 720.54 783.485 653.884C767.847 636.297 757.338 621.587 743.894 602.312C766.328 550.975 789.785 496.515 813.841 446.012C816.316 451.075 818.838 457.206 821.022 462.465C850.807 534.353 896.95 594.353 969.297 628.103C1026.85 655.131 1092.79 658.131 1152.57 636.437C1214.15 613.647 1260.56 569.35 1287.79 509.668C1318.5 440.987 1321.07 363 1294.95 292.444C1271.57 230.606 1227.41 181.19 1166.78 154.062C1109.99 129.061 1045.65 127.387 987.635 149.398C947.735 165.016 912.897 191.309 886.947 225.399C855.7 266.005 829.966 331.308 808.385 379.124L691.169 644.997C674.603 615.915 656.842 579.287 641.258 549.165C633.255 535.337 624.746 518.125 617.132 503.725L572.23 418.656C549.783 462.625 527.93 509.743 506.588 554.322L398.127 779.659L152.24 306.068C101.894 208.955 48.4275 108.024 0 10.0542C52.8891 8.75291 110.022 9.7804 163.174 9.74665C169.658 23.9301 179.369 41.6976 186.597 55.9363L233.335 148.394L393.528 468.362L494.047 258.585L407.078 90.1241C393.841 64.161 378.746 36.1232 366.501 9.9257C420.471 9.08476 475.05 10.2013 529.097 9.68194C584.759 116.332 638.053 227.187 693.007 334.702C705.644 305.752 715.272 274.576 725.96 244.807C777.335 101.659 900.888 9.49164 1052.57 0.413826Z" fill="white"/>
<ellipse cx="1072.5" cy="387" rx="152.5" ry="157" fill="white"/>
</svg>
