<svg width="231" height="224" viewBox="0 0 231 224" fill="none" xmlns="http://www.w3.org/2000/svg">
<style>
path { stroke: #E11D48; }
</style>
<path d="M18.7993 56.5772C8.84906 67.529 5.96154 77.5987 4.95481 82.7429C4.31488 86.0058 4.11197 88.9252 4.02613 90.2835C4.02613 90.2835 3.55788 102.11 6.58587 114.006C12.2829 136.409 39.1601 155.549 39.1601 155.549C35.9839 146.666 32.8154 137.775 29.6392 128.892C30.9112 126.105 32.1833 123.311 33.4554 120.524C34.6494 121.32 36.4287 122.468 38.6685 123.709C41.7901 125.434 44.7401 127.05 48.9231 128.267C51.834 129.118 54.3079 129.47 55.7516 129.633C57.4763 129.829 57.4061 129.712 59.919 129.899C59.919 129.899 62.1588 130.063 69.6897 131.124C66.7008 135.199 63.7196 139.274 60.7306 143.349C62.4944 145.659 64.2581 147.962 66.0218 150.273C65.616 153.84 65.2102 157.399 64.7966 160.967C67.6451 162.153 70.4936 163.34 73.3499 164.534V174.713L82.3089 180.412V189.373L95.3418 197.514C97.4879 208.24 102.202 213.041 105.417 215.336C121.056 226.467 148.051 211.417 161.302 204.032C176.395 195.618 186.416 185.907 191.839 180.006C195.796 175.697 208.064 161.732 216.531 139.633C220.995 127.986 223.009 117.706 224 110.36C219.895 104.725 215.79 99.0964 211.685 93.4605C214.939 93.1561 218.202 92.8516 221.456 92.5472C213.074 84.9129 204.693 77.2709 196.311 69.6366C200.315 71.1666 204.318 72.6887 208.322 74.2187C199.893 65.2418 191.465 56.2649 183.036 47.2958C175.654 41.574 168.271 35.8522 160.888 30.1382C166.827 30.8876 172.766 31.6292 178.705 32.3786C159.811 22.301 143.181 16.5402 131.069 13.1368C115.047 8.62492 104.223 7.45402 101.577 7.18861C94.3194 6.44704 82.028 5.33079 66.3262 7.9458C58.5611 9.24159 47.7056 11.8254 35.4844 17.4145C37.6227 14.2608 39.7611 11.0994 41.8994 7.9458C39.8469 8.68737 23.4349 14.9009 17.9798 32.1756C14.39 43.5333 17.5506 53.2986 18.7915 56.6084L18.7993 56.5772Z" stroke="#1D1D1B" stroke-width="8" stroke-miterlimit="10"/>
<path d="M86.0688 63.305C86.3725 62.0635 84.6979 58.9716 89.1142 54.6383C93.5305 50.305 101 50.305 101 50.305" stroke="#1D1D1B" stroke-width="8" stroke-miterlimit="10"/>
<path d="M62 87.305C62 87.305 51.6844 93.1921 51.0717 98.9986C50.4589 104.805 49.5515 106.897 46.8213 110.692C44.0912 114.488 35.5595 112.978 33 122.305" stroke="#1D1D1B" stroke-width="8" stroke-miterlimit="10"/>
<path d="M69.6889 131.305C81.6733 129.168 90.4401 123.198 90.9764 116.646C91.4505 110.848 84.6811 106.253 80.0257 100.769C76.3728 96.4642 67.5594 90.6273 63.6034 89.2446C59.6475 87.862 58.132 83.8634 53.8729 80.7917C51.8056 79.2991 52.2175 78.9691 51.8755 77.9636C50.6864 74.452 44.4455 70.3434 44.4455 70.3434C39.5958 67.6488 30.7435 62.5661 19 56.305" stroke="#1D1D1B" stroke-width="8" stroke-miterlimit="10"/>
<path d="M18.7993 56.5772C8.84906 67.529 5.96154 77.5987 4.95481 82.7429C4.31488 86.0058 4.11197 88.9252 4.02613 90.2835C4.02613 90.2835 3.55788 102.11 6.58587 114.006C12.2829 136.409 39.1601 155.549 39.1601 155.549C35.9839 146.666 32.8154 137.775 29.6392 128.892C30.9112 126.105 32.1833 123.311 33.4554 120.524C34.6494 121.32 36.4287 122.468 38.6685 123.709C41.7901 125.434 44.7401 127.05 48.9231 128.267C51.834 129.118 54.3079 129.47 55.7516 129.633C57.4763 129.829 57.4061 129.712 59.919 129.899C59.919 129.899 62.1588 130.063 69.6897 131.124C66.7008 135.199 63.7196 139.274 60.7306 143.349C62.4944 145.659 64.2581 147.962 66.0218 150.273C65.616 153.84 65.2102 157.399 64.7966 160.967C67.6451 162.153 70.4936 163.34 73.3499 164.534V174.713L82.3089 180.412V189.373L95.3418 197.514C97.4879 208.24 102.202 213.041 105.417 215.336C121.056 226.467 148.051 211.417 161.302 204.032C176.395 195.618 186.416 185.907 191.839 180.006C195.796 175.697 208.064 161.732 216.531 139.633C220.995 127.986 223.009 117.706 224 110.36C219.895 104.725 215.79 99.0964 211.685 93.4605C214.939 93.1561 218.202 92.8516 221.456 92.5472C213.074 84.9129 204.693 77.2709 196.311 69.6366C200.315 71.1666 204.318 72.6887 208.322 74.2187C199.893 65.2418 191.465 56.2649 183.036 47.2958C175.654 41.574 168.271 35.8522 160.888 30.1382C166.827 30.8876 172.766 31.6292 178.705 32.3786C159.811 22.301 143.181 16.5402 131.069 13.1368C115.047 8.62492 104.223 7.45402 101.577 7.18861C94.3194 6.44704 82.028 5.33079 66.3262 7.9458C58.5611 9.24159 47.7056 11.8254 35.4844 17.4145C37.6227 14.2608 39.7611 11.0994 41.8994 7.9458C39.8469 8.68737 23.4349 14.9009 17.9798 32.1756C14.39 43.5333 17.5506 53.2986 18.7915 56.6084L18.7993 56.5772Z" stroke="#1D1D1B" stroke-width="8" stroke-miterlimit="10"/>
<path d="M86.0688 63.305C86.3725 62.0635 94.0837 67.6383 98.5 63.305C102.916 58.9716 101 50.305 101 50.305" stroke="#1D1D1B" stroke-width="8" stroke-miterlimit="10"/>
<path d="M62 87.305C62 87.305 51.6844 93.1921 51.0717 98.9986C50.4589 104.805 49.5515 106.897 46.8213 110.692C44.0912 114.488 35.5595 112.978 33 122.305" stroke="#1D1D1B" stroke-width="8" stroke-miterlimit="10"/>
<path d="M69.6889 131.305C81.6733 129.168 90.4401 123.198 90.9764 116.646C91.4505 110.848 84.6811 106.253 80.0257 100.769C76.3728 96.4642 67.5594 90.6273 63.6034 89.2446C59.6475 87.862 58.132 83.8634 53.8729 80.7917C51.8056 79.2991 52.2175 78.9691 51.8755 77.9636C50.6864 74.452 44.4455 70.3434 44.4455 70.3434C39.5958 67.6488 30.7435 62.5661 19 56.305" stroke="#1D1D1B" stroke-width="8" stroke-miterlimit="10"/>
</svg>
