<svg width="78" height="94" viewBox="0 0 78 94" fill="none" xmlns="http://www.w3.org/2000/svg">
<path d="M10.5594 41.0331C9.2287 37.8761 9.09157 33.3231 10.3506 30.0953C10.483 29.7556 11.5027 27.8362 11.773 27.6945C12.7622 28.4278 14.4013 29.7048 15.4729 30.1801C16.4608 30.6243 17.4756 31.0057 18.5115 31.3222C20.3381 31.8747 26.499 33.2016 27.2445 35.2516L27.0958 35.5452L26.4974 35.5586C28.4519 37.1703 29.1401 38.0765 30.3911 40.2776C28.2947 42.4701 25.6305 44.5611 25.6968 47.9295C25.7408 50.1586 27.3388 52.2444 28.9425 53.6699C33.0228 57.2967 35.0583 57.7885 37.7218 62.7996C37.6657 62.121 37.5148 61.2408 37.7723 60.6392L38.0169 60.4394C38.8122 60.7426 39.1115 61.8299 39.3901 62.5957C40.0135 61.1127 40.926 59.6527 42.1091 58.5681C49.0496 52.2053 56.5725 49.5044 46.8234 40.4466C47.6153 38.8428 48.2565 37.982 49.5431 36.719C49.8358 36.4316 50.7061 35.6848 50.7704 35.3693C50.4265 35.4257 50.135 35.5092 49.8033 35.4262C50.2193 34.4848 52.7859 33.1078 53.7652 32.7766C58.1257 31.3017 62.0275 30.9695 65.4796 27.5435C68.6535 33.5208 68.4596 39.7884 64.1592 45.194C61.1367 49.195 59.2025 49.4204 55.3611 52.0083C59.6723 50.6366 61.3693 49.6191 64.6305 46.3151C65.1977 45.6961 67.045 42.6196 67.2875 42.4854C67.5685 43.2656 66.6543 46.0704 66.2092 46.7816C63.5504 51.0311 58.363 52.1932 54.7565 54.9939C56.1857 54.51 57.2803 54.0428 58.7962 54.0291L58.9693 54.1186C58.4484 54.7968 57.3038 55.3793 56.6465 56.0263C51.7103 60.8858 53.0817 66.8128 56.5489 72.0245C55.3816 68.8554 54.8076 65.7085 55.2583 62.3253C57.239 69.6324 57.9265 70.8636 63.194 76.0353C62.0935 73.8927 61.5916 72.3786 60.9499 70.0403C61.6006 70.6834 62.1395 71.4177 62.7283 72.1156C64.2812 73.9561 65.9935 75.6572 67.7001 77.3532C67.2059 77.2868 66.092 77.1039 65.6281 77.2086C64.0579 77.5627 59.2407 82.188 58.0349 81.59C57.9168 81.1307 58.0681 80.8254 58.2999 80.4332C58.5087 80.0855 58.724 79.7417 58.9453 79.4018C58.1294 80.1384 57.3374 80.9388 56.514 81.6521C51.5111 85.9861 45.6378 89.2024 40.1424 92.8529C39.6185 93.2009 39.0618 93.5801 38.5715 93.9696C36.1738 92.0364 32.8431 90.1862 30.2097 88.4717C26.3274 85.9439 21.6321 82.6331 18.2642 79.4574C18.7461 80.4218 19.2472 81.3886 19.6586 82.3842C16.7203 80.9785 14.6945 78.465 11.7947 77.2523C11.5161 77.1358 10.3615 77.1118 10.0254 77.1022C11.92 75.2515 14.1807 72.791 15.9336 70.7637C16.2074 71.6616 14.629 74.9074 14.1987 75.8206C17.8351 72.2958 19.832 69.9205 21.1648 64.8914C21.2421 64.5994 21.58 63.27 21.6654 63.0586C22.1646 63.7197 21.8307 66.8753 21.725 67.7968C21.5311 69.4874 21.0129 70.8811 20.3144 72.4151C23.248 68.5666 24.7313 64.1635 22.7439 59.4734C21.5906 56.7512 20.093 55.9234 18.102 53.9833C19.6381 54.0947 20.7767 54.557 22.2473 55.0034C20.6069 53.6419 14.6632 51.0304 13.7755 49.7296C12.1144 48.6494 9.84023 45.4518 10.0066 43.443C10.0828 43.461 10.6002 43.5859 10.6061 43.5948C11.1491 44.3973 11.9221 45.6 12.4613 46.3581C12.6035 46.4309 13.0311 46.8939 13.1835 47.0434C15.402 49.2222 18.1157 51.1289 21.2186 51.826L21.3024 51.7423C20.766 51.2636 18.9993 50.4824 18.1993 49.9549C13.9091 47.1271 12.7409 45.3699 10.5594 41.0331Z" fill="#FAF9F8"/>
<path d="M10.0066 43.443C10.0828 43.461 10.6002 43.5859 10.6061 43.5948C11.1491 44.3972 11.9221 45.5999 12.4613 46.358C11.7018 46.0672 11.6886 45.8182 11.1628 45.2528L10.9367 45.4407C10.8707 47.3966 13.6162 47.8419 13.7755 49.7296C12.1144 48.6494 9.84022 45.4517 10.0066 43.443Z" fill="#EAE7EA"/>
<path d="M1.75508 63.1687C2.41791 60.3024 3.7371 57.2324 3.89252 54.269C4.02494 49.9787 4.74972 44.9548 4.56318 40.6966C4.35364 35.9137 4.95498 32.6604 5.43069 28.1242C7.84477 5.10128 28.0224 -3.32125 48.7146 1.15729C55.6892 2.6667 62.925 6.99527 66.6324 13.333C74.7148 27.0059 71.3811 42.1271 73.9052 56.9347C74.1957 58.6371 75.1291 62.5398 75.9063 64.0066C75.8178 64.7196 75.9313 64.7096 75.3518 65.2058C69.5199 58.4734 70.7411 44.1824 69.9929 35.7341C69.0884 25.5233 66.8166 13.2287 57.3083 7.52834C48.7556 2.40068 39.7851 1.43894 30.2845 3.39176C13.0944 6.92508 8.31208 19.8599 7.19477 35.5548C6.54447 44.1949 7.91614 56.0335 3.15949 63.6442C2.64603 64.5901 0.795994 66.6759 0 67.4152C0.214261 66.5916 1.36888 64.0628 1.75508 63.1687Z" fill="#FAF9F8"/>
<path d="M1.75508 63.1687C1.70922 63.704 1.68032 64.2406 1.66822 64.7777C1.91153 64.6916 2.54709 63.9423 3.15949 63.6442C2.64603 64.5901 0.795994 66.6759 0 67.4152C0.214261 66.5916 1.36888 64.0628 1.75508 63.1687Z" fill="#EAE7EA"/>
<path d="M38.2627 21.7021C39.3622 21.7468 39.6958 23.1502 39.7698 24.0565C40.1834 29.1289 40.2545 34.2388 39.039 39.2075C37.5443 38.8552 37.3079 36.039 37.2581 34.7495C37.1447 31.8129 36.4802 23.8445 38.2627 21.7021Z" fill="#FAF9F8"/>
<path d="M19.2109 15.5638C21.5955 16.5155 23.4142 18.8898 26.5321 19.4348C28.9459 20.1932 32.0057 19.6548 34.2975 20.0991C36.2993 20.4871 33.4299 24.81 33.1146 25.3736C33.0655 25.556 33.0967 25.4695 32.8741 25.62C32.7502 26.0048 32.7372 26.091 32.4548 26.3744C32.0856 25.9166 32.4096 23.1652 32.4659 22.4026C29.1088 22.1234 26.0528 22.7133 23.259 20.4113C22.2065 19.5438 19.3667 16.8527 19.2109 15.5638Z" fill="#FAF9F8"/>
<path d="M57.9632 15.8313L58.1026 15.9585C56.738 18.3281 53.0134 21.6837 50.1947 22.128C48.8991 22.3322 45.6193 22.0093 44.7528 22.7332C44.6704 23.3182 44.9812 26.0174 44.8941 27.3064L44.0282 25.2194C42.9094 23.3126 40.2977 19.6048 44.5915 19.9478C50.3907 20.4111 53.2165 18.582 57.9632 15.8313Z" fill="#FAF9F8"/>
<path d="M26.0772 31.2521C28.3705 30.8819 31.0914 32.5996 32.8263 33.9508C33.452 34.4382 35.9137 36.1285 35.5756 36.9573C35.1329 37.0764 34.5469 36.7048 34.1133 36.4901C30.9146 34.6119 27.9756 32.8033 24.2514 32.3454C23.8964 32.3016 23.6252 32.0447 23.4478 31.7528C23.966 31.3514 25.3806 31.3023 26.0772 31.2521Z" fill="#FAF9F8"/>
<path d="M49.9027 31.2275C50.5823 31.1526 53.3636 31.2028 53.6223 31.9042C53.463 32.0577 50.5008 32.9502 50.013 33.0966C47.7327 33.7813 46.0922 34.7812 44.0933 36.0216C43.5191 36.4087 42.3145 37.1471 41.6506 37.0201C41.7633 36.0783 43.2549 34.9427 43.9737 34.3369C45.8797 32.731 47.4604 31.7521 49.9027 31.2275Z" fill="#EAE7EA"/>
<path d="M10.5594 41.0331C12.7409 45.3699 13.9091 47.1271 18.1993 49.9549C18.9993 50.4824 20.7661 51.2636 21.3024 51.7423L21.2186 51.8261C18.1157 51.1289 15.402 49.2222 13.1835 47.0434C13.0311 46.8939 12.6035 46.4309 12.4614 46.3581C11.9221 45.6 11.1491 44.3973 10.6061 43.5948C10.6002 43.5859 10.0828 43.461 10.0066 43.443C9.84422 42.9757 9.81369 42.8349 9.73392 42.354C9.91515 41.7322 10.2735 41.8623 10.524 41.1385L10.5594 41.0331Z" fill="#545355" fill-opacity="0.0156863"/>
<path d="M18.5841 21.2606C19.0896 22.4555 17.3538 22.7083 19.08 25.9713C19.1655 26.0198 19.2521 26.0665 19.3395 26.1114C20.5244 26.7191 21.5271 27.0432 22.8451 26.6203C23.4675 26.4206 23.8736 26.0076 24.5284 25.794L24.481 26.1179L23.9397 26.342L23.9954 26.6357C20.1197 31.1339 14.0499 23.9727 18.5841 21.2606Z" fill="#EAE7EA"/>
<path d="M59.0543 23.0554C58.702 22.3613 58.5566 22.1542 58.5715 21.3898L58.6989 21.2193C59.2752 21.5404 59.7403 22.3271 59.9236 22.9436C60.2368 23.9978 60.1051 25.1341 59.5589 26.0886C58.8537 27.3388 57.2497 28.2905 55.8044 27.9708C55.6034 27.6421 55.5317 27.5854 55.5384 27.2188L55.8739 26.9612C58.2017 26.5307 58.6454 25.1666 59.0543 23.0554Z" fill="#EAE7EA"/>
<path d="M64.1592 45.194C64.3195 45.5203 64.5761 45.9727 64.6305 46.3151C61.3693 49.6191 59.6723 50.6366 55.3611 52.0083C59.2025 49.4204 61.1367 49.195 64.1592 45.194Z" fill="#010001" fill-opacity="0.0117647"/>
<path d="M41.1055 22.7049C43.4022 23.2664 44.5513 30.0779 44.3828 32.1517C43.5943 31.6356 44.0246 31.1536 43.7969 30.2298C43.1555 27.6271 41.9414 25.1417 41.1055 22.7049Z" fill="#EAE7EA"/>
<path d="M59.7692 19.4581C60.482 19.4084 60.6617 19.534 61.3135 19.859C60.9754 20.3386 58.0234 20.8523 57.2681 21.0256C56.8003 21.1326 56.1267 21.3563 55.7424 21.1325L55.8147 20.837C57.0472 19.7287 58.2055 19.5028 59.7692 19.4581Z" fill="#EAE7EA"/>
<path d="M16.7328 19.5401C17.9941 19.3388 21.1014 19.7593 21.5774 21.0787L21.3727 21.226L20.613 21.0883C19.5572 20.884 16.7489 20.4385 15.9784 19.9341L16.0294 19.7735L16.7328 19.5401Z" fill="#EAE7EA"/>
<path d="M37.5275 18.6668C38.7395 18.5525 40.4823 18.6016 41.3001 19.6574L41.2273 19.8907C40.6476 20.0363 40.069 19.8067 39.4884 19.6396C38.5264 19.2864 36.1921 20.2395 35.7262 19.6806C36.0987 18.9802 36.821 18.8675 37.5275 18.6668Z" fill="#EAE7EA"/>
<path d="M33.7052 37.3696C35.1504 37.3188 37.9501 39.9016 37.4316 41.3152C36.5416 40.7336 34.6479 38.8346 33.8671 38.006C33.6111 37.7344 33.6645 37.6534 33.7052 37.3696Z" fill="#EAE7EA"/>
<path d="M35.1817 23.5016L35.3715 23.7107C35.4206 24.247 33.5937 29.5364 33.2659 30.4015L33.0023 30.3826C33.3974 27.5602 33.5105 25.8319 35.1817 23.5016Z" fill="#EAE7EA"/>
<path d="M43.1788 37.4064L43.4247 37.4933C43.4078 37.8649 40.3705 40.6428 39.8625 41.1282L39.5142 41.0576C39.4106 40.7261 39.3827 40.8296 39.5877 40.4666C40.5838 38.7031 41.3348 38.0062 43.1788 37.4064Z" fill="#EAE7EA"/>
<path d="M21.752 22.2551C22.2957 22.0683 22.8874 22.3601 23.0703 22.9051C23.253 23.4501 22.9569 24.0398 22.4104 24.2186C21.8698 24.3954 21.2876 24.1029 21.1068 23.5637C20.9259 23.0243 21.214 22.44 21.752 22.2551Z" fill="#EAE7EA"/>
<path d="M55.1306 21.9769C56.5642 22.4778 56.3355 23.55 55.4242 24.4607C54.6459 24.1717 54.3578 24.0168 54.2665 23.1835C54.4383 22.5812 54.6726 22.4169 55.1306 21.9769Z" fill="#EAE7EA"/>
<path d="M55.8044 27.9708C54.7204 27.9599 53.1908 27.0839 52.8562 26.0717C53.257 25.8642 54.8746 26.767 55.8738 26.9612L55.5384 27.2188C55.5317 27.5854 55.6034 27.6422 55.8044 27.9708Z" fill="#EAE7EA"/>
<path d="M75.9063 64.0066C76.3752 65.1166 76.9901 66.2687 77.4015 67.3392C76.5389 66.6267 75.9888 66.1566 75.3518 65.2058C75.9313 64.7096 75.8178 64.7196 75.9063 64.0066Z" fill="#EAE7EA" fill-opacity="0.988235"/>
</svg>
